<?xml version="1.0" encoding="utf-8"?>
<svg version="1.1" xmlns="http://www.w3.org/2000/svg" xml:space="preserve" width="450" height="220" class="flowchart">
    <style>
        .public {
            fill: green;
        }

        .private {
            fill: darkred;
            opacity: 0.8;
        }

        text {
            font-size: 14px;
            font-weight: 400;
            fill: white;
        }

        .arrow {
            stroke: white;
            stroke-width: 2;
        }
    </style>

    <g transform="translate(0, 0)">
        <circle cx="100" cy="100" r="100" class="public" />
        <g transform="translate(40 35) scale(0.5)">
            <path fill="#FFF" d="M162.9,19.2l-8.5,9.7h4.8h4.9v9.6v9.6h-50.7H62.7V41v-7.2l4.7-0.1l4.8-0.1L63.9,24l-8.3-9.5l-8.5,9.6l-8.5,9.6h4.9h4.8V41v7.2h-9.6H29v-4.8v-4.9l-9.3,8.1C14.6,51,10.2,54.8,10,55c-0.2,0.2,4,4.2,9.3,8.9l9.6,8.5v-4.9v-4.8h9.6h9.6v38.6v38.6h16.9H82v14.5v14.5H55.5H29V164v-4.9l-9.3,8.1c-5.1,4.4-9.5,8.3-9.7,8.4c-0.2,0.2,4,4.2,9.3,8.9L29,193v-4.9v-4.8h26.5H82v4.8v4.8h-4.8h-4.9l8.1,9.3c4.4,5.1,8.3,9.5,8.4,9.7c0.2,0.2,4.2-4,8.9-9.3l8.5-9.6h-4.9h-4.8v-4.8v-4.8h12.1h12.1v19.3v19.3H89.3H57.9V217v-4.9l-4.4,3.8c-2.5,2.1-6.8,5.8-9.6,8.2l-5.2,4.4l9.6,8.7l9.6,8.8v-4.9v-4.8h38.6h38.6v-26.5v-26.5h9.6h9.6V205v21.7h-4.8h-4.9l8.1,9.3c4.4,5.1,8.3,9.5,8.4,9.7c0.2,0.2,4.2-4,8.9-9.3l8.5-9.6h-4.9h-4.8V205v-21.7h12.1H193v9.6v9.6h-4.8h-4.9l8.5,9.6l8.5,9.6l8.3-9.5l8.3-9.5l-4.8-0.1l-4.7-0.1v-9.6v-9.6h9.6h9.6l0.1,4.7l0.1,4.8l9.5-8.3l9.5-8.3l-9.6-8.5l-9.6-8.5v4.9v4.8h-9.6h-9.6v-21.7v-21.7H193h-14.5v-16.9V91.6h21.7h21.7v4.8v4.9l9.6-8.5c5.4-4.7,9.5-8.7,9.3-8.9c-0.2-0.1-4.6-4-9.6-8.4l-9.3-8.1v4.9v4.8h-21.7h-21.7V53V28.9h4.8h4.9l-8.1-9.3c-4.4-5.1-8.3-9.5-8.4-9.6C171.6,9.8,167.6,13.9,162.9,19.2z M164,69.9v7.2h-21.7h-21.7v24.1v24.1H91.7H62.7v-9.6v-9.6h14.5h14.5v4.8v4.9l9.6-8.5c5.4-4.7,9.5-8.7,9.3-8.9c-0.2-0.1-4.6-4-9.6-8.4l-9.3-8.1v4.9v4.8H77.2H62.7V77.2V62.7h50.7H164L164,69.9L164,69.9z M164,108.5v16.9h-14.5h-14.5v-16.9V91.6h14.5H164V108.5z M120.6,154.3v14.5h-12.1H96.5v-14.5v-14.5h12.1h12.1V154.3L120.6,154.3z M193,154.3v14.5H164h-28.9v-14.5v-14.5H164H193L193,154.3L193,154.3z"/>
        </g>
        <circle cx="100" cy="100" r="90" class="private" />
        <text x="100" y="220" text-anchor="middle">
            With abstraction
        </text>
    </g>

    <g transform="translate(250, 0)">
        <circle cx="100" cy="100" r="100" class="public" />
        <g transform="translate(40 35) scale(0.5)">
            <path fill="#FFF" d="M162.9,19.2l-8.5,9.7h4.8h4.9v9.6v9.6h-50.7H62.7V41v-7.2l4.7-0.1l4.8-0.1L63.9,24l-8.3-9.5l-8.5,9.6l-8.5,9.6h4.9h4.8V41v7.2h-9.6H29v-4.8v-4.9l-9.3,8.1C14.6,51,10.2,54.8,10,55c-0.2,0.2,4,4.2,9.3,8.9l9.6,8.5v-4.9v-4.8h9.6h9.6v38.6v38.6h16.9H82v14.5v14.5H55.5H29V164v-4.9l-9.3,8.1c-5.1,4.4-9.5,8.3-9.7,8.4c-0.2,0.2,4,4.2,9.3,8.9L29,193v-4.9v-4.8h26.5H82v4.8v4.8h-4.8h-4.9l8.1,9.3c4.4,5.1,8.3,9.5,8.4,9.7c0.2,0.2,4.2-4,8.9-9.3l8.5-9.6h-4.9h-4.8v-4.8v-4.8h12.1h12.1v19.3v19.3H89.3H57.9V217v-4.9l-4.4,3.8c-2.5,2.1-6.8,5.8-9.6,8.2l-5.2,4.4l9.6,8.7l9.6,8.8v-4.9v-4.8h38.6h38.6v-26.5v-26.5h9.6h9.6V205v21.7h-4.8h-4.9l8.1,9.3c4.4,5.1,8.3,9.5,8.4,9.7c0.2,0.2,4.2-4,8.9-9.3l8.5-9.6h-4.9h-4.8V205v-21.7h12.1H193v9.6v9.6h-4.8h-4.9l8.5,9.6l8.5,9.6l8.3-9.5l8.3-9.5l-4.8-0.1l-4.7-0.1v-9.6v-9.6h9.6h9.6l0.1,4.7l0.1,4.8l9.5-8.3l9.5-8.3l-9.6-8.5l-9.6-8.5v4.9v4.8h-9.6h-9.6v-21.7v-21.7H193h-14.5v-16.9V91.6h21.7h21.7v4.8v4.9l9.6-8.5c5.4-4.7,9.5-8.7,9.3-8.9c-0.2-0.1-4.6-4-9.6-8.4l-9.3-8.1v4.9v4.8h-21.7h-21.7V53V28.9h4.8h4.9l-8.1-9.3c-4.4-5.1-8.3-9.5-8.4-9.6C171.6,9.8,167.6,13.9,162.9,19.2z M164,69.9v7.2h-21.7h-21.7v24.1v24.1H91.7H62.7v-9.6v-9.6h14.5h14.5v4.8v4.9l9.6-8.5c5.4-4.7,9.5-8.7,9.3-8.9c-0.2-0.1-4.6-4-9.6-8.4l-9.3-8.1v4.9v4.8H77.2H62.7V77.2V62.7h50.7H164L164,69.9L164,69.9z M164,108.5v16.9h-14.5h-14.5v-16.9V91.6h14.5H164V108.5z M120.6,154.3v14.5h-12.1H96.5v-14.5v-14.5h12.1h12.1V154.3L120.6,154.3z M193,154.3v14.5H164h-28.9v-14.5v-14.5H164H193L193,154.3L193,154.3z"/>
        </g>
        <text x="100" y="220" text-anchor="middle">
            No abstraction
        </text>
    </g>
</svg>
